<?xml version="1.0" standalone="no"?>
<!DOCTYPE svg PUBLIC "-//W3C//DTD SVG 20010904//EN"
 "http://www.w3.org/TR/2001/REC-SVG-20010904/DTD/svg10.dtd">
<svg version="1.0" xmlns="http://www.w3.org/2000/svg"
 width="300.000000pt" height="35.000000pt" viewBox="0 0 300.000000 35.000000"
 preserveAspectRatio="xMidYMid meet">
<metadata>
Created by potrace 1.10, written by Peter Selinger 2001-2011
</metadata>
<g transform="translate(0.000000,35.000000) scale(0.100000,-0.100000)"
fill="#000000" stroke="none">
<path d="M20 330 c-21 -21 -22 -30 -18 -154 2 -94 7 -138 17 -149 10 -13 32
-17 98 -17 77 0 84 2 92 22 l8 22 12 -22 c15 -28 64 -30 83 -3 14 20 14 20 26
0 7 -11 23 -19 41 -19 31 0 47 14 52 44 6 31 23 28 39 -7 19 -42 65 -50 91
-16 l17 22 7 -22 c6 -18 13 -22 43 -19 32 3 38 8 46 34 l9 31 30 -34 c35 -40
80 -45 98 -12 l11 21 15 -22 c11 -15 23 -20 46 -18 26 2 34 9 42 36 12 41 21
41 39 -3 13 -31 19 -35 50 -35 26 0 38 6 47 22 17 31 7 214 -14 254 -17 32
-69 64 -106 64 -35 0 -89 -27 -101 -51 l-13 -23 -13 27 c-30 56 -84 55 -105
-1 l-10 -27 -21 28 c-30 42 -55 51 -83 33 -13 -9 -26 -25 -30 -36 -6 -20 -7
-20 -26 4 -45 58 -138 58 -188 0 -30 -34 -31 -34 -31 -10 0 16 -9 32 -24 42
-22 13 -29 14 -53 2 -28 -13 -28 -14 -34 -135 -3 -77 -10 -127 -18 -137 -10
-12 -32 -16 -87 -16 -92 0 -94 3 -94 147 0 115 6 133 46 133 29 0 34 -17 34
-111 l0 -79 43 0 c24 0 48 -5 55 -12 9 -9 12 -9 12 0 0 15 -22 25 -59 26 -25
1 -26 3 -31 83 -3 45 -9 86 -15 91 -24 23 -54 23 -75 2z m280 -19 c14 -28 13
-234 -2 -249 -18 -18 -56 -14 -68 7 -5 11 -10 65 -10 121 0 112 9 140 45 140
14 0 29 -8 35 -19z m221 -12 c29 -32 30 -33 27 -138 -3 -102 -4 -106 -26 -109
-30 -5 -52 14 -52 44 0 18 -5 24 -23 24 -17 0 -25 -8 -32 -32 -7 -23 -17 -34
-33 -36 -43 -6 -52 13 -52 115 0 95 0 95 34 129 29 29 41 34 81 34 40 0 51 -5
76 -31z m156 -20 l38 -50 5 42 c6 48 30 70 58 53 14 -9 17 -30 20 -129 2 -78
-1 -122 -9 -131 -21 -26 -48 -15 -86 37 l-38 50 -5 -42 c-6 -48 -30 -70 -57
-53 -15 9 -18 30 -21 129 -2 78 1 122 9 131 21 26 48 15 86 -37z m335 22 c32
-29 33 -31 36 -125 4 -99 -4 -126 -36 -126 -22 0 -52 30 -52 52 0 12 -7 18
-24 18 -19 0 -25 -6 -28 -26 -4 -35 -31 -53 -55 -38 -15 9 -18 29 -21 111 l-3
101 31 31 c44 43 105 44 152 2z"/>
<path d="M417 226 c-5 -12 1 -16 24 -16 20 0 29 4 27 13 -7 18 -45 20 -51 3z"/>
<path d="M917 233 c-15 -14 -6 -23 23 -23 22 0 28 4 24 15 -6 15 -35 20 -47 8z"/>
<path d="M1163 340 c-31 -12 -36 -41 -32 -178 4 -134 13 -155 63 -150 24 2 35
11 46 35 12 27 21 33 47 33 22 0 38 8 56 29 l25 30 4 -49 c6 -59 21 -80 58
-80 30 0 46 14 51 44 6 32 24 29 40 -6 18 -41 68 -52 91 -19 14 19 14 19 26 0
14 -21 61 -26 80 -7 7 7 12 23 12 37 0 25 1 24 31 -12 35 -43 79 -50 101 -18
14 20 14 20 26 0 17 -27 68 -26 83 3 l12 22 8 -22 c7 -20 15 -23 46 -20 33 3
39 7 47 34 l9 31 30 -34 c31 -35 72 -44 95 -21 7 7 12 32 12 57 l0 46 19 -42
c24 -52 60 -76 115 -77 53 -1 87 16 111 57 l19 31 7 -27 c11 -41 28 -57 58
-57 33 0 51 17 51 47 0 33 23 28 40 -10 20 -42 72 -51 91 -15 l12 22 8 -22 c7
-17 16 -22 44 -22 30 0 38 5 49 30 l12 30 29 -30 c34 -35 79 -40 95 -11 13 25
13 241 0 275 -14 37 -46 51 -75 32 -13 -9 -26 -25 -30 -36 -6 -19 -9 -17 -40
16 -27 28 -39 34 -57 29 -29 -9 -48 -33 -48 -59 0 -17 -3 -16 -19 10 -19 30
-64 54 -103 54 -60 0 -117 -56 -119 -117 -1 -24 -3 -22 -12 14 -7 23 -23 53
-36 67 -50 53 -152 43 -195 -20 l-23 -35 -6 30 c-4 17 -18 38 -32 47 -23 15
-27 15 -49 0 -14 -8 -27 -25 -31 -36 -6 -19 -9 -18 -39 15 -38 40 -45 42 -77
16 -23 -18 -24 -18 -51 2 -26 19 -28 19 -52 3 -15 -9 -26 -21 -26 -27 0 -6 -8
-1 -18 11 -24 29 -66 29 -98 -1 -23 -22 -26 -22 -35 -7 -5 10 -19 23 -30 29
-25 13 -64 -9 -74 -41 -6 -20 -7 -20 -26 4 -24 30 -79 50 -119 41 -36 -8 -79
-41 -89 -69 -8 -19 -9 -18 -25 13 -10 19 -31 38 -51 47 -38 16 -108 18 -142 4z
m1245 -14 c42 -22 65 -52 59 -78 -4 -14 0 -29 10 -40 14 -16 14 -24 4 -60 -7
-23 -26 -54 -41 -70 -23 -23 -37 -28 -75 -28 -42 0 -52 5 -86 39 -39 39 -45
59 -39 131 3 38 36 86 73 104 40 19 60 20 95 2z m-1097 -6 c24 -13 49 -61 49
-94 0 -59 -46 -106 -105 -106 -19 0 -25 -5 -25 -23 0 -50 -63 -67 -80 -21 -13
34 -13 210 0 235 9 16 22 19 76 19 36 0 74 -5 85 -10z m260 -19 c16 -16 29
-40 29 -53 1 -13 2 -52 4 -88 4 -81 -6 -110 -37 -110 -29 0 -47 18 -47 47 0
17 -6 23 -23 23 -17 0 -25 -8 -32 -32 -8 -25 -16 -34 -37 -36 -40 -5 -51 24
-46 130 3 87 4 91 36 119 46 41 111 41 153 0z m127 17 c5 -7 11 -22 13 -32 4
-18 7 -17 40 12 40 35 70 40 89 17 18 -22 4 -61 -30 -85 l-30 -22 28 -36 c46
-58 54 -79 42 -102 -20 -36 -56 -25 -97 31 l-38 50 -5 -42 c-6 -48 -30 -70
-57 -53 -15 9 -18 30 -21 129 -3 121 3 145 38 145 10 0 22 -6 28 -12z m251 -2
c8 -9 11 -53 9 -131 -3 -99 -6 -120 -20 -129 -13 -8 -23 -8 -35 0 -15 9 -18
30 -21 129 -3 121 3 145 38 145 10 0 23 -6 29 -14z m138 -37 l38 -50 5 42 c6
48 30 70 58 53 14 -9 17 -30 20 -129 3 -125 -4 -148 -42 -143 -11 2 -37 24
-56 51 l-35 47 -3 -37 c-4 -43 -17 -63 -42 -63 -36 0 -43 26 -41 143 1 61 7
117 13 124 20 25 48 13 85 -38z m606 27 c34 -31 39 -53 35 -155 -2 -67 -7 -86
-20 -95 -25 -15 -52 3 -56 38 -3 22 -8 26 -33 26 -17 0 -28 -4 -25 -9 12 -19
-13 -61 -37 -61 -40 0 -47 18 -47 118 0 94 0 94 34 128 28 28 41 34 79 34 33
0 51 -6 70 -24z m164 -28 l38 -53 5 44 c6 50 29 73 58 55 14 -9 17 -30 20
-129 3 -125 -4 -148 -42 -143 -11 2 -37 24 -56 51 l-35 47 -3 -37 c-4 -46 -17
-63 -48 -63 -34 0 -44 28 -44 128 0 163 36 197 107 100z m-994 -100 l-6 -47
-19 25 -20 25 23 25 c12 13 23 23 25 21 1 -1 0 -23 -3 -49z"/>
<path d="M2334 225 c-20 -30 -7 -78 22 -84 18 -3 18 -2 2 16 -24 26 -23 38 7
61 13 11 21 22 18 26 -13 13 -33 5 -49 -19z"/>
<path d="M1230 228 c0 -14 6 -19 22 -16 31 4 33 25 3 30 -20 4 -25 1 -25 -14z"/>
<path d="M1470 226 c0 -11 9 -16 26 -16 31 0 28 23 -4 28 -15 2 -22 -2 -22
-12z"/>
<path d="M2597 234 c-15 -15 -6 -24 24 -24 20 0 29 4 27 13 -5 14 -40 21 -51
11z"/>
</g>
</svg>
